<?xml version="1.0" encoding="UTF-8"?>
<svg id="art"
  xmlns="http://www.w3.org/2000/svg" viewBox="0 0 19.66 71.78">
  <g fill="currentColor" stroke-width="0">
    <path
      d="M8.1,28.81c1.1-5.7-.38-11.85-3.95-16.43-1.27-1.63-2.81-3.1-3.64-4.99S-.22,2.96,1.44,1.72c1.72-1.29,4.43-.46,5.58,1.36.4.63.69,1.39,1.34,1.76,1.07.61,2.42-.23,3.12-1.24s1.13-2.25,2.1-3.01c1.97-1.53,5.15.08,5.87,2.47s-.37,4.98-1.88,6.96-3.46,3.63-4.86,5.69c-2.83,4.16-3.12,9.48-3.33,14.51-.62-.19-.95-.99-1.27-1.43Z" />
    <path
      d="M8.1,70.35c1.1-5.7-.38-11.85-3.95-16.43-1.27-1.63-2.81-3.1-3.64-4.99s-.73-4.43.93-5.66c1.72-1.29,4.43-.46,5.58,1.36.4.63.69,1.39,1.34,1.76,1.07.61,2.42-.23,3.12-1.24s1.13-2.25,2.1-3.01c1.97-1.53,5.15.08,5.87,2.47s-.37,4.98-1.88,6.96-3.46,3.63-4.86,5.69c-2.83,4.16-3.12,9.48-3.33,14.51-.62-.19-.95-.99-1.27-1.43Z" />
    <path
      d="M8.1,48.82c1.1-5.7-.38-11.85-3.95-16.43-1.27-1.63-2.81-3.1-3.64-4.99s-.73-4.43.93-5.66c1.72-1.29,4.43-.46,5.58,1.36.4.63.69,1.39,1.34,1.76,1.07.61,2.42-.23,3.12-1.24s1.13-2.25,2.1-3.01c1.97-1.53,5.15.08,5.87,2.47s-.37,4.98-1.88,6.96-3.46,3.63-4.86,5.69c-2.83,4.16-3.12,9.48-3.33,14.51-.62-.19-.95-.99-1.27-1.43Z" />
  </g>
</svg>
