<?xml version="1.0" encoding="UTF-8"?>
<svg xmlns="http://www.w3.org/2000/svg" viewBox="0 0 120 170.45" id="art">
  <g fill="currentColor" stroke-width="0">
    <g opacity="0.44">
      <path class="cls-2"
        d="M61.12,84.95c1.33-3.6,5.5-5.06,8.9-6.86,6.17-3.27,10.95-9.05,13.01-15.71,2.06-6.66,1.37-14.12-1.88-20.29-.99,3.83-4.61,6.34-8.11,8.2s-7.34,3.58-9.52,6.89c-2.2,3.33-2.26,7.58-2.24,11.56" />
      <path class="cls-2"
        d="M60.36,61.59c.06-3.87,2.54-7.29,5.38-9.92,2.84-2.63,6.15-4.77,8.7-7.68,5.66-6.47,6.62-16.6,2.28-24.02.4,4.91-1.72,9.7-4.44,13.81-2.72,4.11-6.09,7.78-8.65,11.99-2.56,4.21-4.31,9.22-3.26,15.82Z" />
      <path class="cls-2"
        d="M61.12,114.84c-.21-4.2,2.31-8.15,5.53-10.86,3.22-2.72,7.13-4.47,10.84-6.47,3.71-2,7.39-4.4,9.65-7.95,2.68-4.2,2.99-9.79.79-14.26.23,3.46-2.06,6.52-4.27,9.2-2.29,2.78-4.64,5.56-7.51,7.73-2.93,2.21-6.35,3.75-9.11,6.16-4.46,3.9-6.85,10.03-5.93,16.46Z" />
      <path class="cls-2"
        d="M62.15,134.65c-.31-6.28,3.01-12.29,7.46-16.74,4.46-4.45,10-7.62,15.38-10.89s10.76-6.81,14.65-11.76c4.02-5.12,6.21-11.63,6.12-18.13,2.97,10.17-1.78,21.28-9.08,28.98s-16.85,12.78-25.92,18.3c-2.01,1.22-4.03,2.49-5.61,4.23-1.59,1.73-2.72,4.01-2.99,6.03Z" />
      <path class="cls-2"
        d="M64.9,112.76c7.95-11.15,24.63-13.89,31.58-25.69,2.46-4.18,3.39-9.05,4.29-13.81,3.02,7.08-.02,15.57-5.36,21.12-5.35,5.55-12.6,8.78-19.65,11.89" />
      <path class="cls-2"
        d="M65.67,141.25c1.88-.65,3.84-1.05,5.8-1.44,3.3-.66,6.61-1.32,9.91-1.98,4.48-.9,9-1.8,13.19-3.62s8.08-4.63,10.38-8.57c-8.84,6.16-19.27,10.06-30,11.2-2.87.31-6.05.55-8.03,2.63-.32.34-.61.81-.43,1.24s1.04.31-.82.54Z" />
    </g>
    <path class="cls-2"
      d="M59.93,170.45c1.18-17.14,1.38-18.3,3.42-28.95,1-5.21,2.73-10.58,6.66-14.16,4.55-4.13,11.07-5.06,16.68-7.57,7.9-3.54,14.09-10.46,17.32-18.48,3.24-8.02,3.62-17.04,1.75-25.48.74,6.95-.71,14.25-4.75,19.96-8.2,11.59-24.86,14.5-33.54,25.73-5.53,7.15-7.53,16.25-7.53,25.37v23.56Z" />
    <path class="cls-2"
      d="M63.86,139.19c.48-2.83,2.52-5.15,4.76-6.96,9.65-7.76,23.75-8.39,33.03-16.58,4.81-4.25,7.88-10.24,9.38-16.48,1.5-6.24,1.53-12.75.98-19.14-.48-5.73-2.28-10.78-6.23-15.62-.79,1.09.72,3.61,1.1,4.89,3.25,10.79,2.59,19.04.95,28.12-1.76,9.76-9.13,18.11-17.88,22.82-5.08,2.74-10.79,4.15-15.93,6.76-5.15,2.62-9.97,6.94-10.16,12.18Z" />
    <path class="cls-2"
      d="M61.76,142.15c-.91-6.12-.57-12.42.98-18.41.97-3.75,2.5-7.5,5.28-10.21,2.81-2.74,6.62-4.15,10.24-5.67,6.93-2.91,13.76-6.6,18.64-12.3,4.88-5.7,7.52-13.77,5.17-20.9-.19-.58-.61-1.26-1.21-1.14-.09,1.75.09,3.51-.08,5.25-.69,7.18-3.28,11.15-6.38,14.24-2.36,2.36-6.63,5.24-9.63,6.7-3.58,1.75-7.16,3.5-10.75,5.25-3.18,1.55-6.46,3.18-8.74,5.88-2.55,3.01-3.57,7.01-4.22,10.89-1.45,8.62-1.46,17.49-.04,26.12,1.01-2,.95-4.3.75-5.7Z" />
    <path class="cls-2"
      d="M61.29,127.32c.39-6.84-1.2-14.18,2.02-20.23,4.9-9.23,18.49-10.88,23.64-19.97,2.03-3.58,2.43-7.82,2.59-11.93.13-3.31.11-6.71-1.43-9.93-1.02,3.2-2.99,6.09-5.58,8.23-3.09,2.54-6.92,3.94-10.54,5.66-3.61,1.72-7.22,3.95-9.13,7.46-1.47,2.7-1.76,5.86-1.97,8.92-.83,11.7-1.02,23.46-.55,35.18.93-1.32,1.25-3.06.97-3.38Z" />
    <path class="cls-2"
      d="M60.97,99.96c-.04-4.43.04-8.86.22-13.28.05-1.25.12-2.54.69-3.65.73-1.43,2.15-2.34,3.51-3.19,6.17-3.89,12.52-8.23,15.73-14.76,3.57-7.26,2.6-15.82,1.03-24.07-1.21,1.15-1.43,2.96-2.11,4.49-1.26,2.85-4.07,4.67-6.87,6.05-2.8,1.37-5.8,2.51-8.07,4.65-2.33,2.2-3.66,5.28-4.28,8.41-.62,3.13-.59,6.35-.56,9.55.08,8.44.16,16.89.71,25.81Z" />
    <path class="cls-2"
      d="M60.32,68.67c-1.37-6.3.58-13.23,5.05-17.89,2.46-2.58,5.59-4.46,7.99-7.09,3.23-3.54,4.95-8.28,5.33-13.05.38-4.77-.5-9.57-2.34-14.16-1.31,1.19-1.45,3.15-2.12,4.78-1.92,4.71-7.91,6.29-11.03,10.31-2.3,2.98-2.77,6.94-3.05,10.69-.55,7.52-.64,15.07.16,26.41Z" />
    <path class="cls-2"
      d="M59.93,33.61c.27-3.54,4.05-6.5,5.65-9.68,1.92-3.83,1.72-8.44.4-12.52-1.32-4.07-3.66-7.73-6.13-11.41.19,11.19-.09,23.19.08,33.61Z" />
    <path class="cls-2"
      d="M63.92,142.96c.3-1.71,1.47-3.18,2.89-4.18s3.09-1.59,4.75-2.1c8.05-2.48,16.65-3.48,24.12-7.36,8.83-4.58,15.28-12.86,19.47-21.86.55-1.17,1.11-2.42,2.23-3.16.86,1.08.42,2.66-.06,3.95-2.12,5.74-3.08,8.59-8.06,14.51-1.86,2.21-4.38,4.83-6.79,6.44-2.42,1.63-6.31,3.33-9.59,4.56-5.36,2.02-12.5,2.92-16.23,3.38-4.22.52-10.04,2.98-12.75,5.81Z" />
    <path class="cls-2"
      d="M118.85,79.84c-1.13-2.24-1.42-4.8-1.76-7.28-1.02-7.33-2.98-14.99-8.28-20.18-.71-.7-1.53-1.47-1.51-2.47.97-.43,2.07.2,2.9.87,3.49,2.79,6.13,6.64,7.46,10.9.98,3.13,1.26,6.43,1.54,9.69.26,3.09.53,6.18.79,9.27-.69-.09-1.28-.7-1.15-.79Z" />
    <g opacity="0.44">
      <path class="cls-2"
        d="M58.88,84.95c-1.33-3.6-5.5-5.06-8.9-6.86-6.17-3.27-10.95-9.05-13.01-15.71-2.06-6.66-1.37-14.12,1.88-20.29.99,3.83,4.61,6.34,8.11,8.2s7.34,3.58,9.52,6.89c2.2,3.33,2.26,7.58,2.24,11.56" />
      <path class="cls-2"
        d="M59.64,61.59c-.06-3.87-2.54-7.29-5.38-9.92-2.84-2.63-6.15-4.77-8.7-7.68-5.66-6.47-6.62-16.6-2.28-24.02-.4,4.91,1.72,9.7,4.44,13.81,2.72,4.11,6.09,7.78,8.65,11.99,2.56,4.21,4.31,9.22,3.26,15.82Z" />
      <path class="cls-2"
        d="M58.88,114.84c.21-4.2-2.31-8.15-5.53-10.86-3.22-2.72-7.13-4.47-10.84-6.47-3.71-2-7.39-4.4-9.65-7.95-2.68-4.2-2.99-9.79-.79-14.26-.23,3.46,2.06,6.52,4.27,9.2,2.29,2.78,4.64,5.56,7.51,7.73,2.93,2.21,6.35,3.75,9.11,6.16,4.46,3.9,6.85,10.03,5.93,16.46Z" />
      <path class="cls-2"
        d="M57.85,134.65c.31-6.28-3.01-12.29-7.46-16.74-4.46-4.45-10-7.62-15.38-10.89s-10.76-6.81-14.65-11.76c-4.02-5.12-6.21-11.63-6.12-18.13-2.97,10.17,1.78,21.28,9.08,28.98s16.85,12.78,25.92,18.3c2.01,1.22,4.03,2.49,5.61,4.23,1.59,1.73,2.72,4.01,2.99,6.03Z" />
      <path class="cls-2"
        d="M55.1,112.76c-7.95-11.15-24.63-13.89-31.58-25.69-2.46-4.18-3.39-9.05-4.29-13.81-3.02,7.08.02,15.57,5.36,21.12,5.35,5.55,12.6,8.78,19.65,11.89" />
      <path class="cls-2"
        d="M54.33,141.25c-1.88-.65-3.84-1.05-5.8-1.44-3.3-.66-6.61-1.32-9.91-1.98-4.48-.9-9-1.8-13.19-3.62s-8.08-4.63-10.38-8.57c8.84,6.16,19.27,10.06,30,11.2,2.87.31,6.05.55,8.03,2.63.32.34.61.81.43,1.24s-1.04.31.82.54Z" />
    </g>
    <path class="cls-2"
      d="M60.07,170.45c-1.18-17.14-1.38-18.3-3.42-28.95-1-5.21-2.73-10.58-6.66-14.16-4.55-4.13-11.07-5.06-16.68-7.57-7.9-3.54-14.09-10.46-17.32-18.48-3.24-8.02-3.62-17.04-1.75-25.48-.74,6.95.71,14.25,4.75,19.96,8.2,11.59,24.86,14.5,33.54,25.73,5.53,7.15,7.53,16.25,7.53,25.37v23.56Z" />
    <path class="cls-2"
      d="M56.14,139.19c-.48-2.83-2.52-5.15-4.76-6.96-9.65-7.76-23.75-8.39-33.03-16.58-4.81-4.25-7.88-10.24-9.38-16.48-1.5-6.24-1.53-12.75-.98-19.14.48-5.73,2.28-10.78,6.23-15.62.79,1.09-.72,3.61-1.1,4.89-3.25,10.79-2.59,19.04-.95,28.12,1.76,9.76,9.13,18.11,17.88,22.82,5.08,2.74,10.79,4.15,15.93,6.76,5.15,2.62,9.97,6.94,10.16,12.18Z" />
    <path class="cls-2"
      d="M58.24,142.15c.91-6.12.57-12.42-.98-18.41-.97-3.75-2.5-7.5-5.28-10.21-2.81-2.74-6.62-4.15-10.24-5.67-6.93-2.91-13.76-6.6-18.64-12.3-4.88-5.7-7.52-13.77-5.17-20.9.19-.58.61-1.26,1.21-1.14.09,1.75-.09,3.51.08,5.25.69,7.18,3.28,11.15,6.38,14.24,2.36,2.36,6.63,5.24,9.63,6.7,3.58,1.75,7.16,3.5,10.75,5.25,3.18,1.55,6.46,3.18,8.74,5.88,2.55,3.01,3.57,7.01,4.22,10.89,1.45,8.62,1.46,17.49.04,26.12-1.01-2-.95-4.3-.75-5.7Z" />
    <path class="cls-2"
      d="M58.71,127.32c-.39-6.84,1.2-14.18-2.02-20.23-4.9-9.23-18.49-10.88-23.64-19.97-2.03-3.58-2.43-7.82-2.59-11.93-.13-3.31-.11-6.71,1.43-9.93,1.02,3.2,2.99,6.09,5.58,8.23,3.09,2.54,6.92,3.94,10.54,5.66,3.61,1.72,7.22,3.95,9.13,7.46,1.47,2.7,1.76,5.86,1.97,8.92.83,11.7,1.02,23.46.55,35.18-.93-1.32-1.25-3.06-.97-3.38Z" />
    <path class="cls-2"
      d="M59.03,99.96c.04-4.43-.04-8.86-.22-13.28-.05-1.25-.12-2.54-.69-3.65-.73-1.43-2.15-2.34-3.51-3.19-6.17-3.89-12.52-8.23-15.73-14.76-3.57-7.26-2.6-15.82-1.03-24.07,1.21,1.15,1.43,2.96,2.11,4.49,1.26,2.85,4.07,4.67,6.87,6.05,2.8,1.37,5.8,2.51,8.07,4.65,2.33,2.2,3.66,5.28,4.28,8.41.62,3.13.59,6.35.56,9.55-.08,8.44-.16,16.89-.71,25.81Z" />
    <path class="cls-2"
      d="M59.68,68.67c1.37-6.3-.58-13.23-5.05-17.89-2.46-2.58-5.59-4.46-7.99-7.09-3.23-3.54-4.95-8.28-5.33-13.05-.38-4.77.5-9.57,2.34-14.16,1.31,1.19,1.45,3.15,2.12,4.78,1.92,4.71,7.91,6.29,11.03,10.31,2.3,2.98,2.77,6.94,3.05,10.69.55,7.52.64,15.07-.16,26.41Z" />
    <path class="cls-2"
      d="M60.07,33.61c-.27-3.54-4.05-6.5-5.65-9.68-1.92-3.83-1.72-8.44-.4-12.52,1.32-4.07,3.66-7.73,6.13-11.41-.19,11.19.09,23.19-.08,33.61Z" />
    <path class="cls-2"
      d="M56.08,142.96c-.3-1.71-1.47-3.18-2.89-4.18s-3.09-1.59-4.75-2.1c-8.05-2.48-16.65-3.48-24.12-7.36-8.83-4.58-15.28-12.86-19.47-21.86-.55-1.17-1.11-2.42-2.23-3.16-.86,1.08-.42,2.66.06,3.95,2.12,5.74,3.08,8.59,8.06,14.51,1.86,2.21,4.38,4.83,6.79,6.44,2.42,1.63,6.31,3.33,9.59,4.56,5.36,2.02,12.5,2.92,16.23,3.38,4.22.52,10.04,2.98,12.75,5.81Z" />
    <path class="cls-2"
      d="M1.15,79.84c1.13-2.24,1.42-4.8,1.76-7.28,1.02-7.33,2.98-14.99,8.28-20.18.71-.7,1.53-1.47,1.51-2.47-.97-.43-2.07.2-2.9.87-3.49,2.79-6.13,6.64-7.46,10.9-.98,3.13-1.26,6.43-1.54,9.69-.26,3.09-.53,6.18-.79,9.27.69-.09,1.28-.7,1.15-.79Z" />
  </g>

</svg>
